<?xml version="1.0" encoding="UTF-8"?>
<svg id="Layer_1" xmlns="http://www.w3.org/2000/svg" version="1.1" viewBox="0 0 2000 527.9">
  <!-- Generator: Adobe Illustrator 29.1.0, SVG Export Plug-In . SVG Version: 2.1.0 Build 142)  -->
  <defs>
    <style>
      .st0 {
        fill: #fff;
      }
    </style>
  </defs>
  <path class="st0" d="M99.4,0H0l141.8,322.1c1.1,2.5,4.6,2.4,5.6,0l47.1-110.9L99.4,0Z"/>
  <path class="st0" d="M402,0s-152.3,348.8-172.7,381c-23.7,37.4-39.4,51.7-68.5,56.2-.3,0-.5.3-.5.5s.3.6.6.6h91c39.4,0,67.9-32.9,83.6-62C353.4,343.3,503.2,0,503.2,0h-101.1Z"/>
  <path class="st0" d="M800,279.7c-.2.5-.9.5-1.1,0l-75.5-165.3h-42.5s77.9,175.4,85.6,188.5c7.6,12.8,16.8,23.4,32.9,23.4s25.3-10.6,32.9-23.4c7.8-13.1,85.6-188.5,85.6-188.5h-42.5l-75.5,165.3h0Z"/>
  <path class="st0" d="M1030.4,109.6c-64.3,0-105.6,41.6-105.6,109.6s41.4,109.6,105.6,109.6,105.6-41.6,105.6-109.6-41.5-109.6-105.6-109.6ZM1030.4,294.1c-41.1,0-67.9-26.7-67.9-75s26.9-75,67.9-75,67.9,26.7,67.9,75-27,75-67.9,75Z"/>
  <path class="st0" d="M1353.3,114.4v209.5h-43.5l-101.4-153.2v153.2h-37.1V114.4h43.7l101.4,154.2V114.4s37,0,37,0Z"/>
  <path class="st0" d="M1489.8,112c-15.3,0-24.6,11.6-30.8,23.2-6.3,11.9-81.8,188.7-81.8,188.7h38.8l21.7-50.7h104.2l21.7,50.7h38.8s-75.5-176.8-81.8-188.7c-6.2-11.6-15.5-23.2-30.8-23.2ZM1452.7,238l36.5-85.6c.2-.5.9-.5,1.1,0l36.5,85.6h-74.2,0Z"/>
  <path class="st0" d="M1707.3,243.1h66.4c-.3,32.5-30.7,51-62.9,51s-66.8-26.7-66.8-75,24.5-75.3,69.1-75.3,51.2,11.4,56.1,37.7h38.5c-6.8-46.1-49.2-72.1-96.8-72.1s-103.9,41.6-103.9,109.6,40.7,108.8,103.9,108.8,53.6-14.3,63-29.4v25.4c-.1,0,35.4,0,35.4,0v-112.9h-101.9v32.1h0Z"/>
  <polygon class="st0" points="2000 149.5 2000 114.4 1849.4 114.4 1849.4 323.9 2000 323.9 2000 288.9 1886.5 288.9 1886.5 233.8 1991.1 233.8 1991.1 198.7 1886.5 198.7 1886.5 149.5 2000 149.5"/>
  <path class="st0" d="M1068.7,431.6h-38.2v95.3h11v-36.2h24.9c19.1,0,32-12.3,32-30.7s-11.6-28.3-29.6-28.3h0ZM1041.4,442.2h25.7c12.3,0,20,6.9,20,18.1s-8.5,19.7-21.2,19.7h-24.4v-37.8Z"/>
  <path class="st0" d="M1137.5,455.5c-15.4,0-26.2,6.9-30.4,19.4l-.3.9,10.2,3,.3-.8c2.8-8.3,9.8-12.7,20.1-12.7s15.6,3.9,15.6,10.7-7.1,8.9-18.5,10.4h-.4c-12.5,1.7-28.2,3.6-28.2,21.1s8.5,20.4,22.8,20.4,17.7-2.1,24.3-11.4v10.3h10.6v-49.8c0-13.5-9.8-21.6-26.1-21.6h0ZM1152.9,490.7v8.4c0,11.3-9.1,19-22.5,19s-13.9-3.6-13.9-10.8,8.4-10.6,18.2-11.9h.4c7.1-1.1,13.4-2.2,17.8-4.6h0Z"/>
  <path class="st0" d="M1217.6,456.1c-9.8,0-17.3,4.3-21.3,12.2v-11.6h-10.7v70.1h10.7v-35.6c0-16,7.4-24.8,20.8-24.8s3.6.2,5.7.5h.9c0,.1.6-10.1.6-10.1l-.7-.2c-2-.4-4-.6-6-.6h0Z"/>
  <path class="st0" d="M1275.6,516.9c-3,.8-5.7,1.2-8.1,1.2-8.6,0-9.8-4.9-9.8-10.3v-41.1h18v-9.9h-18v-21.5l-10.7,2.8v18.7h-13.5v9.9h13.5v43c0,4.5,0,18.2,17.6,18.2s8-.6,12.2-1.8l.7-.2-1.1-9.2-1,.3h0Z"/>
  <path class="st0" d="M1354.3,455.5c-19.5,0-31.7,13.9-31.7,36.2s12.1,36.2,31.7,36.2,31.7-13.9,31.7-36.2-12.2-36.2-31.7-36.2ZM1354.3,518.1c-13.3,0-21-9.6-21-26.4s7.6-26.4,21-26.4,21,9.6,21,26.4-7.7,26.4-21,26.4Z"/>
  <path class="st0" d="M1428.4,426.8c-13.3,0-19.7,6.8-19.7,20.6v9.4h-13.5v9.9h13.5v60.1h10.7v-60.1h18.2v-9.9h-18.2v-8.3c0-8.2,3.2-11.9,10.3-11.9s4.6.4,7.2,1.3l1,.3,1.4-9.6-.7-.2c-3.4-1.1-6.7-1.6-10.1-1.6h0Z"/>
  <polygon class="st0" points="1487.4 526.8 1546.6 526.8 1546.6 516.2 1498.4 516.2 1498.4 483.2 1542.2 483.2 1542.2 472.6 1498.4 472.6 1498.4 442.2 1546.6 442.2 1546.6 431.6 1487.4 431.6 1487.4 526.8"/>
  <path class="st0" d="M1597.9,456.1c-9.8,0-17.3,4.3-21.3,12.2v-11.6h-10.7v70.1h10.7v-35.6c0-16,7.4-24.8,20.8-24.8s3.6.2,5.7.5h.9c0,.1.6-10.1.6-10.1l-.7-.2c-2-.4-4-.6-6-.6h0Z"/>
  <rect class="st0" x="1618.5" y="456.7" width="10.7" height="70.1"/>
  <rect class="st0" x="1617.8" y="431.3" width="12" height="14.9"/>
  <path class="st0" d="M1678.6,465.3c9.4,0,15.6,4.8,17.9,13.7l.2.8,10.4-2.3-.2-.9c-3.5-13.7-13.4-21.3-28-21.3s-31.5,13.6-31.5,36.3,11.6,36.1,31.1,36.1,25-7.9,28.4-21.7l.2-.9-10.4-2.3-.2.8c-2.3,9.3-8.5,14.2-18.1,14.2s-20.5-9.3-20.5-26.1,7.5-26.7,20.7-26.7h0Z"/>
  <path class="st0" d="M1750.3,487c-10-1.7-18.6-3.1-18.6-11.3s5.7-10.7,15.1-10.7,15.3,4,17.6,12l.2.8,9.7-2.9-.2-.8c-3-11.9-12.6-18.5-27-18.5s-26.1,8.1-26.1,21,13.2,17.3,24.9,19.4h.5c9.9,1.9,18.4,3.4,18.4,11.4s-6.1,11.3-15.5,11.3-17.3-5.1-19.5-14.1l-.2-.9-10.1,3,.2.8c3.2,12.7,14.5,20.5,29.5,20.5s26.2-8.8,26.2-21.9-13.3-17.1-25.1-19.1h0Z"/>
  <path class="st0" d="M1819.5,487c-10-1.7-18.6-3.1-18.6-11.3s5.7-10.7,15.1-10.7,15.3,4,17.6,12l.2.8,9.7-2.9-.2-.8c-3-11.9-12.6-18.5-27-18.5s-26,8.1-26,21,13.2,17.3,24.9,19.4h.5c9.9,1.9,18.4,3.4,18.4,11.4s-6.1,11.3-15.5,11.3-17.3-5.1-19.5-14.1l-.2-.9-10.1,3,.2.8c3.2,12.7,14.5,20.5,29.5,20.5s26.2-8.8,26.2-21.9-13.3-17.1-25.1-19.1h0Z"/>
  <path class="st0" d="M1889.8,455.5c-19.5,0-31.7,13.9-31.7,36.2s12.1,36.2,31.7,36.2,31.7-13.9,31.7-36.2-12.2-36.2-31.7-36.2ZM1889.8,518.1c-13.3,0-21-9.6-21-26.4s7.6-26.4,21-26.4,21,9.6,21,26.4-7.7,26.4-21,26.4Z"/>
  <path class="st0" d="M1972.5,455.5c-10.1,0-17.5,3.9-22.2,11.6v-10.3h-10.7v70.1h10.7v-39.6c0-13,8.1-21.7,20.2-21.7s15.6,9.7,15.6,17.8v43.5h10.7v-46.8c0-15.4-9-24.6-24.2-24.6h0Z"/>
</svg>

